<svg xmlns="http://www.w3.org/2000/svg" width="900" height="520" viewBox="0 0 900 520">
<style>
text { font-family: Arial, Helvetica, sans-serif; fill: #222; }
.title { font-size: 24px; font-weight: 700; }
.subtitle { font-size: 14px; fill: #555; }
.axis-label { font-size: 14px; font-weight: 600; }
.tick { font-size: 12px; fill: #555; }
.legend { font-size: 13px; }
</style>
<text class="title" x="450.0" y="36" text-anchor="middle">Rows per CSV (Stacked)</text>
<text class="subtitle" x="450.0" y="58" text-anchor="middle">Primary label rows + test change2 rows</text>
<line x1="90" y1="420.00" x2="860" y2="420.00" stroke="#e5e7eb" stroke-width="1" />
<text class="tick" x="80" y="424.00" text-anchor="end">0</text>
<line x1="90" y1="332.50" x2="860" y2="332.50" stroke="#e5e7eb" stroke-width="1" />
<text class="tick" x="80" y="336.50" text-anchor="end">3</text>
<line x1="90" y1="245.00" x2="860" y2="245.00" stroke="#e5e7eb" stroke-width="1" />
<text class="tick" x="80" y="249.00" text-anchor="end">6</text>
<line x1="90" y1="157.50" x2="860" y2="157.50" stroke="#e5e7eb" stroke-width="1" />
<text class="tick" x="80" y="161.50" text-anchor="end">9</text>
<line x1="90" y1="70.00" x2="860" y2="70.00" stroke="#e5e7eb" stroke-width="1" />
<text class="tick" x="80" y="74.00" text-anchor="end">12</text>
<line x1="90" y1="420" x2="860" y2="420" stroke="#333" stroke-width="1.5" />
<line x1="90" y1="70" x2="90" y2="420" stroke="#333" stroke-width="1.5" />
<rect x="124.65" y="99.17" width="84.70" height="320.83" fill="#4f46e5" />
<rect x="124.65" y="70.00" width="84.70" height="29.17" fill="#f97316" />
<text class="tick" x="167.00" y="442" text-anchor="middle">one</text>
<text class="tick" x="167.00" y="62.00" text-anchor="middle">12</text>
<rect x="278.65" y="99.17" width="84.70" height="320.83" fill="#4f46e5" />
<rect x="278.65" y="70.00" width="84.70" height="29.17" fill="#f97316" />
<text class="tick" x="321.00" y="442" text-anchor="middle">two</text>
<text class="tick" x="321.00" y="62.00" text-anchor="middle">12</text>
<rect x="432.65" y="99.17" width="84.70" height="320.83" fill="#4f46e5" />
<rect x="432.65" y="70.00" width="84.70" height="29.17" fill="#f97316" />
<text class="tick" x="475.00" y="442" text-anchor="middle">three</text>
<text class="tick" x="475.00" y="62.00" text-anchor="middle">12</text>
<rect x="586.65" y="99.17" width="84.70" height="320.83" fill="#4f46e5" />
<rect x="586.65" y="70.00" width="84.70" height="29.17" fill="#f97316" />
<text class="tick" x="629.00" y="442" text-anchor="middle">four</text>
<text class="tick" x="629.00" y="62.00" text-anchor="middle">12</text>
<rect x="740.65" y="99.17" width="84.70" height="320.83" fill="#4f46e5" />
<rect x="740.65" y="70.00" width="84.70" height="29.17" fill="#f97316" />
<text class="tick" x="783.00" y="442" text-anchor="middle">five</text>
<text class="tick" x="783.00" y="62.00" text-anchor="middle">12</text>
<text class="axis-label" x="450.0" y="480" text-anchor="middle">CSV file</text>
<text class="axis-label" transform="translate(25 260.0) rotate(-90)" text-anchor="middle">Row count</text>
<rect x="650" y="20" width="14" height="14" fill="#4f46e5" />
<text class="legend" x="672" y="32">Primary label rows (aaa/bbb/ccc/ddd/eee)</text>
<rect x="650" y="42" width="14" height="14" fill="#f97316" />
<text class="legend" x="672" y="54">test change2 rows</text>
</svg>